<mxfile host="app.diagrams.net" modified="2021-03-06T21:21:10.409Z" agent="5.0 (Macintosh; Intel Mac OS X 11_2_2) AppleWebKit/537.36 (KHTML, like Gecko) Chrome/88.0.4324.192 Safari/537.36" etag="dI1OwvypvUep-h1oHMxb" version="14.4.3" type="github">
  <diagram id="C5RBs43oDa-KdzZeNtuy" name="Page-1">
    <mxGraphModel dx="946" dy="614" grid="1" gridSize="10" guides="1" tooltips="1" connect="1" arrows="1" fold="1" page="1" pageScale="1" pageWidth="827" pageHeight="1169" math="0" shadow="0">
      <root>
        <mxCell id="WIyWlLk6GJQsqaUBKTNV-0" />
        <mxCell id="WIyWlLk6GJQsqaUBKTNV-1" parent="WIyWlLk6GJQsqaUBKTNV-0" />
        <mxCell id="9NoSwFtrhtTuSZT-5ZVL-7" value="" style="rounded=0;html=1;jettySize=auto;orthogonalLoop=1;fontSize=11;endArrow=block;endFill=0;endSize=8;strokeWidth=1;shadow=0;labelBackgroundColor=none;edgeStyle=orthogonalEdgeStyle;" edge="1" parent="WIyWlLk6GJQsqaUBKTNV-1" source="9NoSwFtrhtTuSZT-5ZVL-8" target="9NoSwFtrhtTuSZT-5ZVL-16">
          <mxGeometry relative="1" as="geometry">
            <mxPoint x="309" y="170" as="targetPoint" />
          </mxGeometry>
        </mxCell>
        <mxCell id="9NoSwFtrhtTuSZT-5ZVL-8" value="创建模板" style="rounded=1;whiteSpace=wrap;html=1;fontSize=12;glass=0;strokeWidth=1;shadow=0;" vertex="1" parent="WIyWlLk6GJQsqaUBKTNV-1">
          <mxGeometry x="249" y="120" width="120" height="40" as="geometry" />
        </mxCell>
        <mxCell id="9NoSwFtrhtTuSZT-5ZVL-9" value="" style="rounded=0;html=1;jettySize=auto;orthogonalLoop=1;fontSize=11;endArrow=block;endFill=0;endSize=8;strokeWidth=1;shadow=0;labelBackgroundColor=none;edgeStyle=orthogonalEdgeStyle;exitX=0.5;exitY=1;exitDx=0;exitDy=0;" edge="1" parent="WIyWlLk6GJQsqaUBKTNV-1" source="9NoSwFtrhtTuSZT-5ZVL-16">
          <mxGeometry y="20" relative="1" as="geometry">
            <mxPoint as="offset" />
            <mxPoint x="308.5" y="240" as="sourcePoint" />
            <mxPoint x="308.5" y="280" as="targetPoint" />
          </mxGeometry>
        </mxCell>
        <mxCell id="9NoSwFtrhtTuSZT-5ZVL-12" value="创建 Thanos 流程单" style="rounded=1;whiteSpace=wrap;html=1;fontSize=12;glass=0;strokeWidth=1;shadow=0;" vertex="1" parent="WIyWlLk6GJQsqaUBKTNV-1">
          <mxGeometry x="249" y="280" width="120" height="40" as="geometry" />
        </mxCell>
        <mxCell id="9NoSwFtrhtTuSZT-5ZVL-16" value="关联项目" style="rounded=1;whiteSpace=wrap;html=1;fontSize=12;glass=0;strokeWidth=1;shadow=0;" vertex="1" parent="WIyWlLk6GJQsqaUBKTNV-1">
          <mxGeometry x="249" y="200" width="120" height="40" as="geometry" />
        </mxCell>
        <mxCell id="9NoSwFtrhtTuSZT-5ZVL-29" value="发布流程步骤" style="rounded=1;whiteSpace=wrap;html=1;fontSize=12;glass=0;strokeWidth=1;shadow=0;" vertex="1" parent="WIyWlLk6GJQsqaUBKTNV-1">
          <mxGeometry x="249" y="360" width="120" height="40" as="geometry" />
        </mxCell>
        <mxCell id="9NoSwFtrhtTuSZT-5ZVL-37" value="" style="rounded=0;html=1;jettySize=auto;orthogonalLoop=1;fontSize=11;endArrow=block;endFill=0;endSize=8;strokeWidth=1;shadow=0;labelBackgroundColor=none;edgeStyle=orthogonalEdgeStyle;exitX=0.5;exitY=1;exitDx=0;exitDy=0;entryX=0.5;entryY=0;entryDx=0;entryDy=0;" edge="1" parent="WIyWlLk6GJQsqaUBKTNV-1" source="9NoSwFtrhtTuSZT-5ZVL-12" target="9NoSwFtrhtTuSZT-5ZVL-29">
          <mxGeometry y="20" relative="1" as="geometry">
            <mxPoint as="offset" />
            <mxPoint x="319" y="240" as="sourcePoint" />
            <mxPoint x="318.5" y="290" as="targetPoint" />
            <Array as="points">
              <mxPoint x="309" y="340" />
              <mxPoint x="309" y="340" />
            </Array>
          </mxGeometry>
        </mxCell>
        <mxCell id="9NoSwFtrhtTuSZT-5ZVL-40" value="" style="rounded=0;html=1;jettySize=auto;orthogonalLoop=1;fontSize=11;endArrow=block;endFill=0;endSize=8;strokeWidth=1;shadow=0;labelBackgroundColor=none;edgeStyle=orthogonalEdgeStyle;exitX=0.5;exitY=1;exitDx=0;exitDy=0;entryX=0.5;entryY=0;entryDx=0;entryDy=0;" edge="1" parent="WIyWlLk6GJQsqaUBKTNV-1" source="9NoSwFtrhtTuSZT-5ZVL-29" target="9NoSwFtrhtTuSZT-5ZVL-43">
          <mxGeometry y="20" relative="1" as="geometry">
            <mxPoint as="offset" />
            <mxPoint x="329" y="340" as="sourcePoint" />
            <mxPoint x="309" y="410" as="targetPoint" />
            <Array as="points" />
          </mxGeometry>
        </mxCell>
        <mxCell id="9NoSwFtrhtTuSZT-5ZVL-43" value="发布完成" style="rounded=1;whiteSpace=wrap;html=1;fontSize=12;glass=0;strokeWidth=1;shadow=0;" vertex="1" parent="WIyWlLk6GJQsqaUBKTNV-1">
          <mxGeometry x="249" y="460" width="120" height="40" as="geometry" />
        </mxCell>
        <mxCell id="9NoSwFtrhtTuSZT-5ZVL-45" value="添加或删除项目" style="rounded=1;whiteSpace=wrap;html=1;fontSize=12;glass=0;strokeWidth=1;shadow=0;" vertex="1" parent="WIyWlLk6GJQsqaUBKTNV-1">
          <mxGeometry x="459" y="360" width="120" height="40" as="geometry" />
        </mxCell>
        <mxCell id="9NoSwFtrhtTuSZT-5ZVL-48" value="" style="rounded=0;html=1;jettySize=auto;orthogonalLoop=1;fontSize=11;endArrow=block;endFill=0;endSize=8;strokeWidth=1;shadow=0;labelBackgroundColor=none;edgeStyle=orthogonalEdgeStyle;exitX=0;exitY=0.75;exitDx=0;exitDy=0;" edge="1" parent="WIyWlLk6GJQsqaUBKTNV-1" source="9NoSwFtrhtTuSZT-5ZVL-45" target="9NoSwFtrhtTuSZT-5ZVL-29">
          <mxGeometry y="20" relative="1" as="geometry">
            <mxPoint as="offset" />
            <mxPoint x="379" y="390" as="sourcePoint" />
            <mxPoint x="419" y="390" as="targetPoint" />
            <Array as="points">
              <mxPoint x="379" y="390" />
              <mxPoint x="379" y="390" />
            </Array>
          </mxGeometry>
        </mxCell>
        <mxCell id="9NoSwFtrhtTuSZT-5ZVL-49" value="更新" style="edgeLabel;html=1;align=center;verticalAlign=middle;resizable=0;points=[];fontSize=12;" vertex="1" connectable="0" parent="9NoSwFtrhtTuSZT-5ZVL-48">
          <mxGeometry x="-0.1" y="2" relative="1" as="geometry">
            <mxPoint x="-4" y="8" as="offset" />
          </mxGeometry>
        </mxCell>
        <mxCell id="9NoSwFtrhtTuSZT-5ZVL-50" value="" style="rounded=0;html=1;jettySize=auto;orthogonalLoop=1;fontSize=11;endArrow=block;endFill=0;endSize=8;strokeWidth=1;shadow=0;labelBackgroundColor=none;edgeStyle=orthogonalEdgeStyle;exitX=0;exitY=0.75;exitDx=0;exitDy=0;" edge="1" parent="WIyWlLk6GJQsqaUBKTNV-1">
          <mxGeometry y="20" relative="1" as="geometry">
            <mxPoint as="offset" />
            <mxPoint x="369" y="370" as="sourcePoint" />
            <mxPoint x="459" y="370" as="targetPoint" />
            <Array as="points">
              <mxPoint x="379" y="370" />
              <mxPoint x="379" y="370" />
            </Array>
          </mxGeometry>
        </mxCell>
        <mxCell id="9NoSwFtrhtTuSZT-5ZVL-51" value="变更" style="edgeLabel;html=1;align=center;verticalAlign=middle;resizable=0;points=[];fontSize=12;" vertex="1" connectable="0" parent="9NoSwFtrhtTuSZT-5ZVL-50">
          <mxGeometry x="-0.1" y="2" relative="1" as="geometry">
            <mxPoint x="4" y="-8" as="offset" />
          </mxGeometry>
        </mxCell>
      </root>
    </mxGraphModel>
  </diagram>
</mxfile>
